<svg xmlns='http://www.w3.org/2000/svg' style='font-size:initial;' viewBox="0 0 843.84 570.06" data-pikchr-date="20260403102956">
<path d="M148.32,380.16L349.92,380.16L349.92,178.56L148.32,178.56Z"  style="fill:none;stroke-width:4.32;stroke:rgb(229,50,66);" />
<path d="M493.92,380.16L695.52,380.16L695.52,178.56L493.92,178.56Z"  style="fill:none;stroke-width:4.32;stroke:rgb(229,50,66);" />
<path d="M119.52,408.96L378.72,408.96L378.72,149.76L119.52,149.76Z"  style="fill:none;stroke-width:4.32;stroke:rgb(30,138,65);" />
<path d="M465.12,408.96L724.32,408.96L724.32,149.76L465.12,149.76Z"  style="fill:none;stroke-width:4.32;stroke:rgb(30,138,65);" />
<path d="M90.72,437.76L407.52,437.76L407.52,120.96L90.72,120.96Z"  style="fill:none;stroke-width:4.32;stroke:rgb(27,133,148);" />
<path d="M436.32,437.76L753.12,437.76L753.12,120.96L436.32,120.96Z"  style="fill:none;stroke-width:4.32;stroke:rgb(27,133,148);" />
<path d="M61.92,466.56L781.92,466.56L781.92,92.16L61.92,92.16Z"  style="fill:none;stroke-width:4.32;stroke:rgb(134,50,229);" />
<path d="M33.12,495.36L810.72,495.36L810.72,63.36L33.12,63.36Z"  style="fill:none;stroke-width:4.32;stroke:rgb(229,134,50);" />
<path d="M4.32,524.16L839.52,524.16L839.52,34.56L4.32,34.56Z"  style="fill:none;stroke-width:4.32;stroke:rgb(50,108,229);" />
<text x="249.12" y="163.44" text-anchor="middle" fill="rgb(229,50,66)" dominant-baseline="central">MNT Namespace</text>
<text x="594.72" y="163.44" text-anchor="middle" fill="rgb(229,50,66)" dominant-baseline="central">MNT Namespace</text>
<text x="249.12" y="134.64" text-anchor="middle" fill="rgb(30,138,65)" dominant-baseline="central">PID Namespace</text>
<text x="594.72" y="134.64" text-anchor="middle" fill="rgb(30,138,65)" dominant-baseline="central">PID Namespace</text>
<text x="249.12" y="105.84" text-anchor="middle" fill="rgb(27,133,148)" dominant-baseline="central">USER Namespace</text>
<text x="594.72" y="105.84" text-anchor="middle" fill="rgb(27,133,148)" dominant-baseline="central">USER Namespace</text>
<text x="421.92" y="77.04" text-anchor="middle" fill="rgb(134,50,229)" dominant-baseline="central">UTC Namespace</text>
<text x="421.92" y="48.24" text-anchor="middle" fill="rgb(229,134,50)" dominant-baseline="central">IPC Namespace</text>
<text x="421.92" y="19.44" text-anchor="middle" fill="rgb(50,108,229)" dominant-baseline="central">Network Namespace</text>
<path d="M537.12,322.56L652.32,322.56L652.32,207.36L537.12,207.36Z"  style="fill:rgb(238,238,238);stroke-width:4.32;stroke:rgb(238,238,238);" />
<path d="M191.52,322.56L306.72,322.56L306.72,207.36L191.52,207.36Z"  style="fill:rgb(238,238,238);stroke-width:4.32;stroke:rgb(238,238,238);" />
<text x="249.12" y="340.2" text-anchor="middle" fill="rgb(255,0,0)" font-size="125%" dominant-baseline="central">Application</text>
<text x="594.72" y="340.2" text-anchor="middle" fill="rgb(255,0,0)" font-size="125%" dominant-baseline="central">Side Car</text>
<text x="594.72" y="365.4" text-anchor="middle" fill="rgb(255,0,0)" font-size="125%" dominant-baseline="central">Container</text>
<text x="421.92" y="544.95" text-anchor="middle" fill="rgb(34,34,34)" font-size="156.25%" dominant-baseline="central">Side Cars Linux Namespaces Explained</text>
</svg>
